# xmcd
#
# Track frame offsets:
#	150
#	10312
#	22537
#	33039
#	43259
#	53255
#	62432
#	70808
#	82079
#	91737
#	99194
#	109176
#	118936
#	140498
#	152723
#	163225
#	173445
#	183441
#	192618
#	200994
#	212265
#	221923
#	229380
#	239362
#
# Disc length: 3321 seconds
#
# Revision: 2
# Processed by: cddbd v1.5.2PL0 Copyright (c) Steve Scherf et al.
# Submitted via: audiograbber 1.83.01
#
DISCID=460cf718
DTITLE=Buck Owens - Christmas with Buck Owens [Capitol ST-2396]
DYEAR=1965
DGENRE=Christmas
TTITLE0=Santa Looked A Lot Like Daddy
TTITLE1=Blue Christmas Lights
TTITLE2=Christmas Ain't Christmas Dear Without You
TTITLE3=Jingle Bells
TTITLE4=All I Want For Christmas Is You
TTITLE5=Santa's Gonna Come In A Stagecoach
TTITLE6=Christmas Time's A Comin'
TTITLE7=Blue Christmas Tree
TTITLE8=Here Comes Santa Claus Again
TTITLE9=Christmas Morning
TTITLE10=It's Christmas Time For Everyone But Me
TTITLE11=Because It's Christmas Time
TTITLE12=Santa Looked A Lot Like Daddy
TTITLE13=Blue Christmas Lights
TTITLE14=Christmas Ain't Christmas Dear Without You
TTITLE15=Jingle Bells
TTITLE16=All I Want For Christmas Is You
TTITLE17=Santa's Gonna Come In A Stagecoach
TTITLE18=Christmas Time's A Comin'
TTITLE19=Blue Christmas Tree
TTITLE20=Here Comes Santa Claus Again
TTITLE21=Christmas Morning
TTITLE22=It's Christmas Time For Everyone But Me
TTITLE23=Because It's Christmas Time
EXTD=
EXTT0=
EXTT1=
EXTT2=
EXTT3=
EXTT4=
EXTT5=
EXTT6=
EXTT7=
EXTT8=
EXTT9=
EXTT10=
EXTT11=
EXTT12=
EXTT13=
EXTT14=
EXTT15=
EXTT16=
EXTT17=
EXTT18=
EXTT19=
EXTT20=
EXTT21=
EXTT22=
EXTT23=
PLAYORDER=
